<?xml version="1.0" encoding="UTF-8"?>
<svg version="1.1" xmlns="http://www.w3.org/2000/svg" width="77" height="48">
<path d="M0 0 C25.41 0 50.82 0 77 0 C77 15.84 77 31.68 77 48 C51.59 48 26.18 48 0 48 C0 32.16 0 16.32 0 0 Z " fill="#FCFDFD" transform="translate(0,0)"/>
<path d="M0 0 C3.74496696 3.65644956 7.2281543 7.45702312 10.625 11.4375 C11.14425049 12.04440674 11.66350098 12.65131348 12.19848633 13.27661133 C16.26960758 18.06874389 20.18882131 22.9669408 24.04296875 27.93457031 C27.69799455 32.6449581 31.47826415 37.23309998 35.3203125 41.79296875 C37 44 37 44 38 47 C13.25 47 -11.5 47 -37 47 C-35.44847118 43.89694237 -34.25773156 41.91755447 -32.09375 39.34765625 C-31.23293823 38.31656738 -31.23293823 38.31656738 -30.35473633 37.26464844 C-29.74267334 36.53793945 -29.13061035 35.81123047 -28.5 35.0625 C-24.16626579 29.86578309 -19.8922275 24.64880023 -15.8125 19.25 C-10.78010521 12.6266651 -5.42589099 6.30269847 0 0 Z " fill="#76838A" transform="translate(38,1)"/>
<path d="M0 0 C3.74496696 3.65644956 7.2281543 7.45702312 10.625 11.4375 C11.14425049 12.04440674 11.66350098 12.65131348 12.19848633 13.27661133 C16.26960758 18.06874389 20.18882131 22.9669408 24.04296875 27.93457031 C27.69799455 32.6449581 31.47826415 37.23309998 35.3203125 41.79296875 C37 44 37 44 38 47 C34.52153469 47.57736822 31.46990155 47.69398031 28 47 C24.65601567 44.54436066 22.44383324 41.32271639 20 38 C19.11786158 36.87529864 18.23087634 35.75438698 17.33984375 34.63671875 C15.44522745 32.25697579 13.5649121 29.86733308 11.69921875 27.46484375 C8.1809273 22.93810085 4.59273558 18.46775713 1 14 C-2.65320371 17.56105082 -6.03604316 21.27517304 -9.3125 25.1875 C-9.78888916 25.75339844 -10.26527832 26.31929687 -10.75610352 26.90234375 C-18.11615719 35.60908949 -18.11615719 35.60908949 -24.89453125 44.76171875 C-27 47 -27 47 -29.578125 47.48828125 C-30.90070312 47.40126953 -30.90070312 47.40126953 -32.25 47.3125 C-33.14203125 47.26738281 -34.0340625 47.22226562 -34.953125 47.17578125 C-35.96632812 47.08876953 -35.96632812 47.08876953 -37 47 C-35.66224486 44.10379205 -34.14626036 41.78517366 -32.09375 39.34765625 C-31.23293823 38.31656738 -31.23293823 38.31656738 -30.35473633 37.26464844 C-29.74267334 36.53793945 -29.13061035 35.81123047 -28.5 35.0625 C-24.16626579 29.86578309 -19.8922275 24.64880023 -15.8125 19.25 C-10.78010521 12.6266651 -5.42589099 6.30269847 0 0 Z " fill="#78848B" transform="translate(38,1)"/>
<path d="M0 0 C0.33 0 0.66 0 1 0 C1.97704752 6.03006096 2.28309221 10.96843733 -1.0625 16.265625 C-3.380638 19.06719271 -5.89871469 21.67996299 -8.42138672 24.296875 C-11.1016978 27.18859324 -13.47504013 30.31269497 -15.875 33.4375 C-17.16149875 35.09817572 -18.45057504 36.75600861 -19.75415039 38.40332031 C-20.60611259 39.49519427 -21.43524884 40.60516247 -22.24389648 41.72949219 C-24.23208869 44.37729455 -25.37673933 45.86351956 -28.67578125 46.5859375 C-29.54589844 46.51632813 -30.41601562 46.44671875 -31.3125 46.375 C-32.19550781 46.32085937 -33.07851563 46.26671875 -33.98828125 46.2109375 C-34.65214844 46.14132813 -35.31601562 46.07171875 -36 46 C-34.66224486 43.10379205 -33.14626036 40.78517366 -31.09375 38.34765625 C-30.51979492 37.66018311 -29.94583984 36.97270996 -29.35449219 36.2644043 C-28.74250977 35.53777588 -28.13052734 34.81114746 -27.5 34.0625 C-23.14841822 28.8433842 -18.85378071 23.60405601 -14.75 18.1875 C-10.02303891 11.9789541 -5.19605253 5.82587707 0 0 Z " fill="#12477B" transform="translate(37,2)"/>
<path d="M0 0 C3.57399799 3.49073281 6.91067896 7.11084314 10.125 10.9375 C10.59147949 11.49091064 11.05795898 12.04432129 11.53857422 12.61450195 C15.1402598 16.91474366 18.65369634 21.28152631 22.125 25.6875 C22.59824707 26.28747803 23.07149414 26.88745605 23.55908203 27.50561523 C26.87230452 31.74460904 26.87230452 31.74460904 28 34 C25.22265625 34.25 25.22265625 34.25 22 34 C20.12109375 32.375 20.12109375 32.375 18.4375 30 C17.77363281 29.10410156 17.10976563 28.20820312 16.42578125 27.28515625 C15.86624756 26.51776123 15.86624756 26.51776123 15.29541016 25.73486328 C12.67306204 22.22291347 9.8864962 18.84024109 7.125 15.4375 C6.55322021 14.72271484 5.98144043 14.00792969 5.39233398 13.27148438 C4.85294189 12.60310547 4.3135498 11.93472656 3.7578125 11.24609375 C3.2745752 10.64466553 2.79133789 10.0432373 2.29345703 9.42358398 C1.03611455 7.86753691 1.03611455 7.86753691 -1 7 C-1.24621094 7.556875 -1.49242188 8.11375 -1.74609375 8.6875 C-3.23582632 11.43491957 -5.0466652 13.61086246 -7.0625 16 C-9.62732264 19.05552022 -12.11538733 22.10580901 -14.3828125 25.38671875 C-14.76945068 25.93779297 -15.15608887 26.48886719 -15.55444336 27.05664062 C-16.63743267 28.61543585 -17.70010346 30.18828894 -18.76171875 31.76171875 C-21 34 -21 34 -24.26953125 34.33203125 C-25.17058594 34.22246094 -26.07164063 34.11289062 -27 34 C-23.77637815 28.92518937 -20.10254677 24.35965596 -16.25 19.75 C-15.00075118 18.24524886 -13.75205085 16.74004218 -12.50390625 15.234375 C-11.90336426 14.51056641 -11.30282227 13.78675781 -10.68408203 13.04101562 C-7.86460733 9.62396597 -5.10641996 6.15991603 -2.35546875 2.6875 C-1 1 -1 1 0 0 Z " fill="#F0F3F5" transform="translate(38,14)"/>
<path d="M0 0 C4.19812632 1.55958431 6.52745054 4.67909915 9.25 8.0625 C9.70890625 8.61744141 10.1678125 9.17238281 10.640625 9.74414062 C14 13.84837705 14 13.84837705 14 15 C5.75 15 -2.5 15 -11 15 C-8.47902196 11.21853294 -6.04293869 7.66988372 -3.25 4.125 C-2.63640625 3.34382813 -2.0228125 2.56265625 -1.390625 1.7578125 C-0.70226562 0.88769531 -0.70226562 0.88769531 0 0 Z " fill="#F8F9FA" transform="translate(37,33)"/>
<path d="M0 0 C0.33 0 0.66 0 1 0 C2.02949926 4.58508466 2.17958246 8.72337797 -0.03271484 12.99316406 C-1.40533168 15.14861332 -2.87417853 17.16640371 -4.4375 19.1875 C-4.9334668 19.85918213 -5.42943359 20.53086426 -5.94042969 21.22290039 C-8.24029275 24.00605232 -9.77419163 25.78691278 -13.41845703 26.42041016 C-15.65570613 26.42523276 -17.78524051 26.30519442 -20 26 C-18.45025591 22.78551314 -16.69813015 20.20962627 -14.4375 17.4375 C-13.73367187 16.57125 -13.02984375 15.705 -12.3046875 14.8125 C-11.54414063 13.884375 -10.78359375 12.95625 -10 12 C-9.17757813 10.989375 -8.35515625 9.97875 -7.5078125 8.9375 C-1.20510563 1.20510563 -1.20510563 1.20510563 0 0 Z " fill="#0F457A" transform="translate(37,22)"/>
<path d="M0 0 C0.33 0 0.66 0 1 0 C1.92017937 9.42331839 1.92017937 9.42331839 -0.3359375 13.2890625 C-1.81536616 14.97686139 -3.30922639 16.52560515 -5 18 C-5.99 17.67 -6.98 17.34 -8 17 C-9.0937761 14.64417456 -9.06222775 13.28002486 -8.5 10.75 C-6.27590732 6.67249674 -3.26196253 3.29466391 0 0 Z " fill="#14497D" transform="translate(37,22)"/>
<path d="M0 0 C0.94875 0.04125 1.8975 0.0825 2.875 0.125 C2.875 0.785 2.875 1.445 2.875 2.125 C3.535 2.125 4.195 2.125 4.875 2.125 C4.215 3.445 3.555 4.765 2.875 6.125 C-0.425 6.125 -3.725 6.125 -7.125 6.125 C-4.14540816 0.16581633 -4.14540816 0.16581633 0 0 Z " fill="#10457A" transform="translate(8.125,41.875)"/>
<path d="M0 0 C-0.33 2.64 -0.66 5.28 -1 8 C-1.99 8.33 -2.98 8.66 -4 9 C-5 8 -6 7 -7 6 C-7 4.68 -7 3.36 -7 2 C-4 0 -4 0 0 0 Z " fill="#0C4377" transform="translate(29,19)"/>
<path d="M0 0 C0.66 0.33 1.32 0.66 2 1 C0.89367046 3.29776136 -0.28060705 5.45328831 -1.625 7.625 C-3.16701209 9.83109005 -3.16701209 9.83109005 -3 12 C-4.98 12 -6.96 12 -9 12 C-6 8 -3 4 0 0 Z " fill="#15487C" transform="translate(15,29)"/>
<path d="M0 0 C-0.50740462 4.39750672 -3.08293314 6.86948922 -6 10 C-6.66 10 -7.32 10 -8 10 C-6.53172205 3.51510574 -6.53172205 3.51510574 -4 1.0625 C-2 0 -2 0 0 0 Z " fill="#F5F8F8" transform="translate(36,21)"/>
<path d="M0 0 C1.65 0 3.3 0 5 0 C5 1.65 5 3.3 5 5 C3.02 5.99 3.02 5.99 1 7 C-0.0625 4.625 -0.0625 4.625 -1 2 C-0.67 1.34 -0.34 0.68 0 0 Z " fill="#0C4378" transform="translate(29,33)"/>
<path d="M0 0 C0.66 0.66 1.32 1.32 2 2 C5.09926819 1.67801034 5.09926819 1.67801034 8 1 C7.34 2.32 6.68 3.64 6 5 C3.03 5 0.06 5 -3 5 C-1 1 -1 1 0 0 Z " fill="#2A5A87" transform="translate(20,43)"/>
<path d="M0 0 C1.70884005 1.62339805 3.37446717 3.29319053 5 5 C5 5.66 5 6.32 5 7 C2.03 7 -0.94 7 -4 7 C-3.01 6.34 -2.02 5.68 -1 5 C-0.27034634 2.43717258 -0.27034634 2.43717258 0 0 Z " fill="#889297" transform="translate(55,41)"/>
<path d="M0 0 C0.66 0.33 1.32 0.66 2 1 C1.67 1.99 1.34 2.98 1 4 C2.65 4.33 4.3 4.66 6 5 C6 5.33 6 5.66 6 6 C2.7 6 -0.6 6 -4 6 C-2 2 -2 2 0 0 Z " fill="#305F8C" transform="translate(5,42)"/>
<path d="M0 0 C0.103125 0.5775 0.20625 1.155 0.3125 1.75 C1.09792798 4.32049158 2.30504197 5.93657284 4 8 C3.01 8.66 2.02 9.32 1 10 C-0.65 8.02 -2.3 6.04 -4 4 C-2.68 2.68 -1.36 1.36 0 0 Z " fill="#205180" transform="translate(28,33)"/>
<path d="M0 0 C1.98 0.99 1.98 0.99 4 2 C4 3.98 4 5.96 4 8 C2.68 7.67 1.36 7.34 0 7 C0 4.69 0 2.38 0 0 Z " fill="#0A4277" transform="translate(33,7)"/>
<path d="M0 0 C1.32 0.66 2.64 1.32 4 2 C3.625 3.9375 3.625 3.9375 3 6 C2.01 6.495 2.01 6.495 1 7 C1 6.34 1 5.68 1 5 C0.34 4.67 -0.32 4.34 -1 4 C-0.67 2.68 -0.34 1.36 0 0 Z " fill="#14497E" transform="translate(14,35)"/>
<path d="M0 0 C0.99 0.33 1.98 0.66 3 1 C2.67 2.32 2.34 3.64 2 5 C0.02 5.33 -1.96 5.66 -4 6 C-2.68 4.02 -1.36 2.04 0 0 Z " fill="#215182" transform="translate(26,15)"/>
<path d="M0 0 C0.66 0.33 1.32 0.66 2 1 C0.84826645 3.46800047 -0.04783565 5.04783565 -2 7 C-2.99 6.67 -3.98 6.34 -5 6 C-3.35 4.02 -1.7 2.04 0 0 Z " fill="#1F507F" transform="translate(15,29)"/>
</svg>
